<?xml version="1.0" encoding="utf-8"?>
<!-- Generator: Adobe Illustrator 22.1.0, SVG Export Plug-In . SVG Version: 6.00 Build 0)  -->
<svg version="1.1" xmlns="http://www.w3.org/2000/svg" xmlns:xlink="http://www.w3.org/1999/xlink" x="0px" y="0px"
	 viewBox="0 0 192.5 43" style="enable-background:new 0 0 192.5 43;" xml:space="preserve">
<style type="text/css">
	.st0{fill:#FF0000;}
</style>
<g id="Layer_1">
	<path class="st0" d="M67.3,21.8V40h-1.5V21.8H67.3z"/>
	<path class="st0" d="M72.1,27.6v2.1h0c0.3-0.8,0.8-1.4,1.5-1.8c0.7-0.5,1.6-0.7,2.4-0.7c0.9,0,1.6,0.1,2.2,0.3
		c0.6,0.2,1.1,0.5,1.4,1c0.4,0.4,0.6,0.9,0.7,1.5s0.2,1.3,0.2,2v8h-1.5v-7.8c0-0.5,0-1-0.1-1.5c-0.1-0.5-0.3-0.9-0.5-1.2
		s-0.6-0.6-1-0.8s-0.9-0.3-1.5-0.3c-0.6,0-1.2,0.1-1.6,0.3c-0.5,0.2-0.9,0.5-1.2,0.9s-0.6,0.8-0.8,1.4c-0.2,0.5-0.3,1.1-0.3,1.7V40
		h-1.5V27.6H72.1z"/>
	<path class="st0" d="M85.1,27.6v2.1h0c0.3-0.8,0.8-1.4,1.5-1.8c0.7-0.5,1.6-0.7,2.4-0.7c0.9,0,1.6,0.1,2.2,0.3
		c0.6,0.2,1.1,0.5,1.4,1c0.4,0.4,0.6,0.9,0.7,1.5s0.2,1.3,0.2,2v8h-1.5v-7.8c0-0.5,0-1-0.1-1.5c-0.1-0.5-0.3-0.9-0.5-1.2
		s-0.6-0.6-1-0.8s-0.9-0.3-1.5-0.3c-0.6,0-1.2,0.1-1.6,0.3c-0.5,0.2-0.9,0.5-1.2,0.9s-0.6,0.8-0.8,1.4c-0.2,0.5-0.3,1.1-0.3,1.7V40
		h-1.5V27.6H85.1z"/>
	<path class="st0" d="M104.3,27.7c0.7,0.4,1.3,0.8,1.8,1.4c0.5,0.6,0.9,1.3,1.1,2.1s0.4,1.6,0.4,2.5s-0.1,1.7-0.4,2.5
		s-0.6,1.5-1.1,2.1c-0.5,0.6-1.1,1.1-1.8,1.4s-1.6,0.5-2.5,0.5c-0.9,0-1.8-0.2-2.5-0.5c-0.7-0.3-1.3-0.8-1.8-1.4s-0.9-1.3-1.1-2.1
		c-0.3-0.8-0.4-1.6-0.4-2.5s0.1-1.7,0.4-2.5c0.3-0.8,0.6-1.5,1.1-2.1c0.5-0.6,1.1-1.1,1.8-1.4c0.7-0.4,1.6-0.5,2.5-0.5
		C102.7,27.2,103.6,27.4,104.3,27.7z M99.9,29c-0.5,0.3-1,0.7-1.4,1.2c-0.4,0.5-0.6,1.1-0.8,1.7c-0.2,0.6-0.3,1.3-0.3,1.9
		s0.1,1.3,0.3,1.9c0.2,0.6,0.5,1.2,0.8,1.7c0.4,0.5,0.8,0.9,1.4,1.2c0.5,0.3,1.2,0.5,1.9,0.5c0.7,0,1.4-0.2,1.9-0.5
		c0.5-0.3,1-0.7,1.4-1.2c0.4-0.5,0.6-1.1,0.8-1.7c0.2-0.6,0.3-1.3,0.3-1.9s-0.1-1.3-0.3-1.9c-0.2-0.6-0.5-1.2-0.8-1.7
		c-0.4-0.5-0.8-0.9-1.4-1.2s-1.2-0.5-1.9-0.5C101.1,28.5,100.4,28.6,99.9,29z"/>
	<path class="st0" d="M110.2,27.6l3.9,10.9h0l3.9-10.9h1.6L115,40h-1.6l-4.8-12.4H110.2z"/>
	<path class="st0" d="M121.4,29.5c0.3-0.5,0.6-1,1-1.3s1-0.6,1.6-0.7c0.6-0.2,1.3-0.2,2-0.2c0.5,0,1.1,0.1,1.6,0.2
		c0.5,0.1,1,0.3,1.5,0.6c0.4,0.3,0.8,0.7,1.1,1.2s0.4,1.2,0.4,2v6.6c0,0.6,0.3,0.9,0.9,0.9c0.2,0,0.3,0,0.5-0.1v1.3
		c-0.2,0-0.3,0.1-0.5,0.1c-0.1,0-0.3,0-0.5,0c-0.4,0-0.7-0.1-0.9-0.2c-0.2-0.1-0.4-0.3-0.5-0.4c-0.1-0.2-0.2-0.4-0.3-0.7
		c0-0.3-0.1-0.6-0.1-0.9h0c-0.3,0.4-0.6,0.8-0.8,1.1c-0.3,0.3-0.6,0.6-0.9,0.8s-0.7,0.4-1.2,0.5s-1,0.2-1.6,0.2
		c-0.6,0-1.1-0.1-1.6-0.2s-0.9-0.4-1.3-0.7c-0.4-0.3-0.7-0.7-0.9-1.1s-0.3-1-0.3-1.6c0-0.9,0.2-1.5,0.6-2s0.9-0.9,1.5-1.1
		c0.6-0.3,1.4-0.4,2.1-0.5s1.6-0.2,2.4-0.3c0.3,0,0.6-0.1,0.8-0.1c0.2,0,0.4-0.1,0.6-0.3c0.2-0.1,0.3-0.3,0.4-0.5
		c0.1-0.2,0.1-0.5,0.1-0.8c0-0.5-0.1-0.9-0.3-1.3c-0.2-0.3-0.4-0.6-0.7-0.8c-0.3-0.2-0.6-0.3-1-0.4c-0.4-0.1-0.8-0.1-1.3-0.1
		c-1,0-1.8,0.2-2.4,0.7c-0.6,0.5-0.9,1.2-1,2.2H121C121,30.7,121.2,30,121.4,29.5z M129,33.2c-0.1,0.2-0.3,0.3-0.6,0.4
		c-0.3,0.1-0.5,0.1-0.7,0.2c-0.6,0.1-1.3,0.2-2,0.3c-0.7,0.1-1.3,0.2-1.9,0.4c-0.6,0.2-1,0.4-1.4,0.8c-0.4,0.3-0.5,0.8-0.5,1.4
		c0,0.4,0.1,0.7,0.2,1c0.2,0.3,0.4,0.6,0.6,0.8c0.3,0.2,0.6,0.4,0.9,0.5s0.7,0.2,1,0.2c0.6,0,1.1-0.1,1.7-0.3c0.5-0.2,1-0.4,1.4-0.8
		c0.4-0.3,0.7-0.7,0.9-1.2c0.2-0.5,0.3-1,0.3-1.6L129,33.2L129,33.2z"/>
	<path class="st0" d="M138.6,27.6v1.3H136v8.4c0,0.5,0.1,0.9,0.2,1.2c0.1,0.3,0.5,0.4,1,0.5c0.4,0,0.9,0,1.3-0.1v1.3
		c-0.2,0-0.5,0-0.7,0c-0.2,0-0.5,0-0.7,0c-1,0-1.7-0.2-2.1-0.6c-0.4-0.4-0.6-1.1-0.6-2.2v-8.5h-2.2v-1.3h2.2v-3.7h1.5v3.7H138.6z"/>
	<path class="st0" d="M142.3,22.8v2.4h-1.5v-2.4H142.3z M142.3,27.6V40h-1.5V27.6H142.3z"/>
	<path class="st0" d="M153,27.7c0.7,0.4,1.3,0.8,1.8,1.4c0.5,0.6,0.9,1.3,1.1,2.1c0.3,0.8,0.4,1.6,0.4,2.5s-0.1,1.7-0.4,2.5
		c-0.3,0.8-0.6,1.5-1.1,2.1c-0.5,0.6-1.1,1.1-1.8,1.4c-0.7,0.3-1.6,0.5-2.5,0.5c-0.9,0-1.8-0.2-2.5-0.5s-1.3-0.8-1.8-1.4
		c-0.5-0.6-0.9-1.3-1.1-2.1c-0.3-0.8-0.4-1.6-0.4-2.5s0.1-1.7,0.4-2.5c0.3-0.8,0.6-1.5,1.1-2.1c0.5-0.6,1.1-1.1,1.8-1.4
		s1.6-0.5,2.5-0.5C151.4,27.2,152.3,27.4,153,27.7z M148.6,29c-0.5,0.3-1,0.7-1.4,1.2c-0.4,0.5-0.6,1.1-0.8,1.7
		c-0.2,0.6-0.3,1.3-0.3,1.9s0.1,1.3,0.3,1.9c0.2,0.6,0.5,1.2,0.8,1.7c0.4,0.5,0.8,0.9,1.4,1.2c0.5,0.3,1.2,0.5,1.9,0.5
		s1.4-0.2,1.9-0.5c0.5-0.3,1-0.7,1.4-1.2c0.4-0.5,0.6-1.1,0.8-1.7c0.2-0.6,0.3-1.3,0.3-1.9s-0.1-1.3-0.3-1.9
		c-0.2-0.6-0.5-1.2-0.8-1.7c-0.4-0.5-0.8-0.9-1.4-1.2c-0.5-0.3-1.2-0.5-1.9-0.5S149.1,28.6,148.6,29z"/>
	<path class="st0" d="M160.1,27.6v2.1h0c0.3-0.8,0.8-1.4,1.5-1.8c0.7-0.5,1.6-0.7,2.4-0.7c0.9,0,1.6,0.1,2.2,0.3
		c0.6,0.2,1.1,0.5,1.4,1s0.6,0.9,0.7,1.5s0.2,1.3,0.2,2v8h-1.5v-7.8c0-0.5,0-1-0.1-1.5c-0.1-0.5-0.3-0.9-0.5-1.2s-0.6-0.6-1-0.8
		s-0.9-0.3-1.5-0.3c-0.6,0-1.2,0.1-1.6,0.3c-0.5,0.2-0.9,0.5-1.2,0.9c-0.3,0.4-0.6,0.8-0.8,1.4s-0.3,1.1-0.3,1.7V40h-1.5V27.6H160.1
		z"/>
	<path class="st0" d="M178.8,30c-0.2-0.3-0.4-0.6-0.7-0.9c-0.3-0.2-0.6-0.4-1-0.5c-0.4-0.1-0.8-0.2-1.2-0.2c-0.3,0-0.7,0-1,0.1
		s-0.7,0.2-1,0.4c-0.3,0.2-0.5,0.4-0.7,0.7s-0.3,0.6-0.3,1c0,0.3,0.1,0.6,0.3,0.9s0.4,0.4,0.6,0.6s0.5,0.3,0.8,0.4
		c0.3,0.1,0.6,0.2,0.8,0.3l2,0.5c0.4,0.1,0.9,0.2,1.3,0.3s0.8,0.4,1.1,0.7c0.3,0.3,0.6,0.6,0.8,1c0.2,0.4,0.3,0.9,0.3,1.4
		c0,0.7-0.2,1.3-0.5,1.7c-0.3,0.5-0.7,0.9-1.2,1.2c-0.5,0.3-1,0.5-1.6,0.6s-1.2,0.2-1.8,0.2c-1.5,0-2.6-0.3-3.6-1
		c-0.9-0.7-1.4-1.8-1.6-3.3h1.5c0.1,1,0.4,1.8,1.1,2.3s1.5,0.8,2.5,0.8c0.4,0,0.8,0,1.1-0.1c0.4-0.1,0.8-0.2,1.1-0.4
		s0.6-0.4,0.8-0.7c0.2-0.3,0.3-0.7,0.3-1.1c0-0.4-0.1-0.7-0.2-0.9c-0.2-0.2-0.4-0.5-0.6-0.6s-0.6-0.3-0.9-0.4
		c-0.3-0.1-0.7-0.2-1-0.3l-2-0.4c-0.5-0.1-1-0.3-1.4-0.4c-0.4-0.2-0.8-0.4-1.1-0.6c-0.3-0.2-0.6-0.6-0.7-0.9
		c-0.2-0.4-0.3-0.8-0.3-1.3c0-0.6,0.1-1.2,0.4-1.6c0.3-0.5,0.6-0.8,1.1-1.1s1-0.5,1.5-0.6c0.6-0.1,1.1-0.2,1.7-0.2
		c0.6,0,1.2,0.1,1.7,0.2c0.5,0.2,1,0.4,1.4,0.7s0.7,0.8,1,1.3c0.2,0.5,0.4,1.1,0.4,1.8H179C179,30.8,178.9,30.3,178.8,30z"/>
</g>
<g id="Layer_2">
	<path class="st0" d="M14,18.8c0.3,0.6,0.7,1.1,1.2,1.4c0.5,0.4,1.1,0.6,1.8,0.8c0.7,0.2,1.4,0.2,2.2,0.2c0.5,0,0.9-0.1,1.5-0.2
		s1-0.3,1.5-0.6c0.5-0.3,0.8-0.6,1.1-1.1c0.3-0.4,0.5-1,0.5-1.6c0-0.5-0.1-0.9-0.3-1.3c-0.2-0.4-0.5-0.7-0.8-0.9
		c-0.3-0.2-0.7-0.4-1.1-0.6c-0.4-0.2-0.8-0.3-1.2-0.4l-3.8-0.9c-0.5-0.1-1-0.3-1.5-0.5c-0.5-0.2-0.9-0.5-1.2-0.8
		c-0.4-0.3-0.6-0.7-0.9-1.2c-0.2-0.5-0.3-1-0.3-1.7c0-0.4,0.1-0.9,0.2-1.5c0.2-0.6,0.5-1.1,0.9-1.6c0.4-0.5,1-0.9,1.8-1.3
		c0.8-0.3,1.8-0.5,3-0.5c0.9,0,1.7,0.1,2.4,0.3s1.4,0.6,2,1c0.6,0.5,1,1,1.4,1.7c0.3,0.7,0.5,1.4,0.5,2.3h-1.6
		c0-0.7-0.2-1.2-0.4-1.7c-0.3-0.5-0.6-0.9-1-1.2c-0.4-0.3-0.9-0.6-1.5-0.7c-0.6-0.2-1.1-0.3-1.7-0.3c-0.6,0-1.1,0.1-1.6,0.2
		c-0.5,0.1-1,0.3-1.4,0.6c-0.4,0.3-0.7,0.6-1,1s-0.4,1-0.4,1.6c0,0.4,0.1,0.8,0.2,1c0.1,0.3,0.3,0.6,0.6,0.8s0.5,0.4,0.8,0.5
		c0.3,0.1,0.6,0.2,1,0.3l4.2,1c0.6,0.2,1.2,0.4,1.7,0.6c0.5,0.2,1,0.5,1.4,0.9c0.4,0.3,0.7,0.8,1,1.3c0.2,0.5,0.3,1.1,0.3,1.8
		c0,0.2,0,0.5-0.1,0.8c0,0.3-0.1,0.7-0.3,1c-0.2,0.4-0.4,0.7-0.7,1.1c-0.3,0.4-0.7,0.7-1.2,1c-0.5,0.3-1.1,0.5-1.8,0.7
		c-0.7,0.2-1.6,0.3-2.6,0.3s-2-0.1-2.8-0.3c-0.9-0.2-1.6-0.6-2.2-1.1c-0.6-0.5-1.1-1.1-1.4-1.9c-0.3-0.8-0.5-1.7-0.4-2.7h1.6
		C13.6,17.5,13.7,18.3,14,18.8z"/>
	<path class="st0" d="M35.5,10c0.7,0.4,1.3,0.8,1.8,1.4c0.5,0.6,0.9,1.3,1.1,2.1c0.3,0.8,0.4,1.6,0.4,2.5c0,0.9-0.1,1.7-0.4,2.5
		c-0.3,0.8-0.6,1.5-1.1,2.1c-0.5,0.6-1.1,1.1-1.8,1.4c-0.7,0.3-1.6,0.5-2.5,0.5c-0.9,0-1.8-0.2-2.5-0.5c-0.7-0.3-1.3-0.8-1.8-1.4
		c-0.5-0.6-0.9-1.3-1.1-2.1c-0.3-0.8-0.4-1.6-0.4-2.5c0-0.9,0.1-1.7,0.4-2.5c0.3-0.8,0.6-1.5,1.1-2.1c0.5-0.6,1.1-1.1,1.8-1.4
		c0.7-0.4,1.6-0.5,2.5-0.5C34,9.5,34.8,9.7,35.5,10z M31.1,11.2c-0.5,0.3-1,0.7-1.4,1.2s-0.6,1.1-0.8,1.7c-0.2,0.6-0.3,1.3-0.3,1.9
		c0,0.7,0.1,1.3,0.3,1.9c0.2,0.6,0.5,1.2,0.8,1.7c0.4,0.5,0.8,0.9,1.4,1.2c0.5,0.3,1.2,0.5,1.9,0.5s1.4-0.2,1.9-0.5
		c0.5-0.3,1-0.7,1.4-1.2c0.4-0.5,0.6-1.1,0.8-1.7c0.2-0.6,0.3-1.3,0.3-1.9c0-0.7-0.1-1.3-0.3-1.9c-0.2-0.6-0.5-1.2-0.8-1.7
		s-0.8-0.9-1.4-1.2c-0.5-0.3-1.2-0.5-1.9-0.5S31.7,10.9,31.1,11.2z"/>
	<path class="st0" d="M42.7,5.1v17.2h-1.5V5.1H42.7z"/>
	<path class="st0" d="M54.3,22.3v-2.2h0c-0.4,0.8-1,1.5-1.7,1.9c-0.8,0.4-1.6,0.7-2.5,0.7c-0.8,0-1.5-0.1-2-0.3
		c-0.6-0.2-1-0.5-1.4-0.9c-0.3-0.4-0.6-0.9-0.8-1.5c-0.2-0.6-0.2-1.2-0.2-2V9.8h1.5V18c0,1.1,0.3,2,0.8,2.6c0.5,0.6,1.3,0.9,2.5,0.9
		c0.7,0,1.2-0.1,1.7-0.4c0.5-0.3,0.9-0.7,1.2-1.1c0.3-0.5,0.5-1,0.7-1.6s0.2-1.2,0.2-1.8V9.8h1.5v12.4H54.3z"/>
	<path class="st0" d="M63.5,9.8v1.3H61v8.4c0,0.5,0.1,0.9,0.2,1.2c0.1,0.3,0.5,0.4,1,0.5c0.4,0,0.9,0,1.3-0.1v1.3
		c-0.2,0-0.5,0-0.7,0c-0.2,0-0.5,0-0.7,0c-1,0-1.7-0.2-2.1-0.6c-0.4-0.4-0.6-1.1-0.6-2.2v-8.5h-2.2V9.8h2.2V6.1H61v3.7H63.5z"/>
	<path class="st0" d="M67.3,5.1v2.4h-1.5V5.1H67.3z M67.3,9.8v12.4h-1.5V9.8H67.3z"/>
	<path class="st0" d="M78,10c0.7,0.4,1.3,0.8,1.8,1.4c0.5,0.6,0.9,1.3,1.1,2.1c0.3,0.8,0.4,1.6,0.4,2.5c0,0.9-0.1,1.7-0.4,2.5
		c-0.3,0.8-0.6,1.5-1.1,2.1c-0.5,0.6-1.1,1.1-1.8,1.4c-0.7,0.3-1.6,0.5-2.5,0.5c-0.9,0-1.8-0.2-2.5-0.5c-0.7-0.3-1.3-0.8-1.8-1.4
		c-0.5-0.6-0.9-1.3-1.1-2.1c-0.3-0.8-0.4-1.6-0.4-2.5c0-0.9,0.1-1.7,0.4-2.5c0.3-0.8,0.6-1.5,1.1-2.1c0.5-0.6,1.1-1.1,1.8-1.4
		c0.7-0.4,1.6-0.5,2.5-0.5C76.4,9.5,77.2,9.7,78,10z M73.5,11.2c-0.5,0.3-1,0.7-1.4,1.2s-0.6,1.1-0.8,1.7c-0.2,0.6-0.3,1.3-0.3,1.9
		c0,0.7,0.1,1.3,0.3,1.9c0.2,0.6,0.5,1.2,0.8,1.7c0.4,0.5,0.8,0.9,1.4,1.2c0.5,0.3,1.2,0.5,1.9,0.5s1.4-0.2,1.9-0.5
		c0.5-0.3,1-0.7,1.4-1.2c0.4-0.5,0.6-1.1,0.8-1.7c0.2-0.6,0.3-1.3,0.3-1.9c0-0.7-0.1-1.3-0.3-1.9c-0.2-0.6-0.5-1.2-0.8-1.7
		s-0.8-0.9-1.4-1.2c-0.5-0.3-1.2-0.5-1.9-0.5S74.1,10.9,73.5,11.2z"/>
	<path class="st0" d="M85.1,9.8V12h0c0.3-0.8,0.8-1.4,1.5-1.8c0.7-0.5,1.6-0.7,2.4-0.7c0.9,0,1.6,0.1,2.2,0.3c0.6,0.2,1.1,0.5,1.4,1
		c0.4,0.4,0.6,0.9,0.7,1.5c0.1,0.6,0.2,1.3,0.2,2v8h-1.5v-7.8c0-0.5,0-1-0.1-1.5c-0.1-0.5-0.3-0.9-0.5-1.2c-0.2-0.3-0.6-0.6-1-0.8
		s-0.9-0.3-1.5-0.3c-0.6,0-1.2,0.1-1.6,0.3c-0.5,0.2-0.9,0.5-1.2,0.9c-0.3,0.4-0.6,0.8-0.8,1.4c-0.2,0.5-0.3,1.1-0.3,1.7v7.3h-1.5
		V9.8H85.1z"/>
</g>
</svg>
